<svg xmlns="http://www.w3.org/2000/svg" xmlns:xlink="http://www.w3.org/1999/xlink" width="500" zoomAndPan="magnify" viewBox="0 0 375 374.999991" height="500" preserveAspectRatio="xMidYMid meet" version="1.0"><defs><g/><clipPath id="id1"><path d="M 40.601562 40.320312 L 334.601562 40.320312 L 334.601562 334.320312 L 40.601562 334.320312 Z M 40.601562 40.320312 " clip-rule="nonzero"/></clipPath><clipPath id="id2"><path d="M 12.417969 136.484375 L 362.667969 136.484375 L 362.667969 238.484375 L 12.417969 238.484375 Z M 12.417969 136.484375 " clip-rule="nonzero"/></clipPath><clipPath id="id3"><path d="M 50.992188 50.992188 L 323.992188 50.992188 L 323.992188 323.992188 L 50.992188 323.992188 Z M 50.992188 50.992188 " clip-rule="nonzero"/></clipPath><clipPath id="id4"><path d="M 45.515625 143.328125 L 329.765625 143.328125 L 329.765625 231.828125 L 45.515625 231.828125 Z M 45.515625 143.328125 " clip-rule="nonzero"/></clipPath></defs><rect x="-37.5" width="450" fill="#ffffff" y="-37.499999" height="449.999989" fill-opacity="1"/><rect x="-37.5" width="450" fill="#ffffff" y="-37.499999" height="449.999989" fill-opacity="1"/><rect x="-37.5" width="450" fill="#ffffff" y="-37.499999" height="449.999989" fill-opacity="1"/><g clip-path="url(#id1)"><path fill="#000000" d="M 187.601562 40.320312 C 106.417969 40.320312 40.601562 106.132812 40.601562 187.320312 C 40.601562 268.503906 106.417969 334.320312 187.601562 334.320312 C 268.789062 334.320312 334.601562 268.503906 334.601562 187.320312 C 334.601562 106.132812 268.789062 40.320312 187.601562 40.320312 " fill-opacity="1" fill-rule="nonzero"/></g><g clip-path="url(#id2)"><path fill="#ff2b2b" d="M 350.222656 238.484375 L 24.867188 238.484375 C 18.015625 238.484375 12.429688 232.902344 12.429688 226.050781 L 12.429688 148.917969 C 12.429688 142.066406 18.015625 136.484375 24.867188 136.484375 L 350.222656 136.484375 C 357.074219 136.484375 362.660156 142.066406 362.660156 148.917969 L 362.660156 226.050781 C 362.660156 232.902344 357.074219 238.484375 350.222656 238.484375 " fill-opacity="1" fill-rule="nonzero"/><path fill="#000000" d="M 350.761719 142.1875 C 354.160156 142.1875 356.953125 144.980469 356.953125 148.378906 L 356.953125 226.589844 C 356.953125 229.988281 354.160156 232.78125 350.761719 232.78125 L 24.328125 232.78125 C 20.929688 232.78125 18.136719 229.988281 18.136719 226.589844 L 18.136719 148.378906 C 18.136719 144.980469 20.929688 142.1875 24.328125 142.1875 L 350.761719 142.1875 M 350.761719 136.484375 L 24.328125 136.484375 C 17.769531 136.484375 12.429688 141.824219 12.429688 148.378906 L 12.429688 226.589844 C 12.429688 233.144531 17.769531 238.484375 24.328125 238.484375 L 350.761719 238.484375 C 357.316406 238.484375 362.660156 233.144531 362.660156 226.589844 L 362.660156 148.378906 C 362.660156 141.824219 357.316406 136.484375 350.761719 136.484375 " fill-opacity="1" fill-rule="nonzero"/></g><g clip-path="url(#id3)"><path fill="#ededed" d="M 187.492188 50.992188 C 112.253906 50.992188 50.992188 112.253906 50.992188 187.492188 C 50.992188 262.730469 112.253906 323.992188 187.492188 323.992188 C 262.730469 323.992188 323.992188 262.730469 323.992188 187.492188 C 323.992188 112.253906 262.730469 50.992188 187.492188 50.992188 Z M 187.492188 50.992188 " fill-opacity="1" fill-rule="nonzero"/><path fill="#ff2b2b" d="M 187.492188 50.992188 C 112.253906 50.992188 50.992188 112.253906 50.992188 187.492188 C 50.992188 262.730469 112.253906 323.992188 187.492188 323.992188 C 262.730469 323.992188 323.992188 262.730469 323.992188 187.492188 C 323.992188 112.253906 262.730469 50.992188 187.492188 50.992188 Z M 276.324219 269.117188 C 266.660156 262.730469 244.984375 243.347656 243.621094 195.300781 L 307.992188 195.300781 C 306.136719 223.691406 294.453125 249.40625 276.324219 269.117188 Z M 95.382812 109.304688 C 104.390625 114.4375 129.507812 133 132.945312 179.410156 L 66.988281 179.410156 C 68.738281 153.257812 79.109375 128.523438 95.382812 109.304688 Z M 195.136719 179.464844 L 195.136719 66.988281 C 223.527344 68.84375 249.40625 80.421875 269.117188 98.601562 C 255.414062 107.992188 231.390625 131.417969 228.167969 179.464844 Z M 179.847656 179.464844 L 148.726562 179.464844 C 145.449219 129.777344 120.167969 106.738281 106.683594 97.839844 C 126.285156 80.09375 151.457031 68.792969 179.847656 66.988281 Z M 179.847656 195.300781 L 179.847656 307.992188 C 153.640625 306.300781 130.160156 296.417969 111.269531 280.964844 C 124.539062 271.464844 147.6875 247.167969 149.054688 195.300781 Z M 195.136719 195.300781 L 227.839844 195.300781 C 229.152344 246.078125 251.210938 270.210938 264.585938 280.203125 C 245.53125 296.089844 221.835938 306.300781 195.082031 307.992188 Z M 243.949219 179.464844 C 247.277344 135.238281 270.375 116.183594 280.257812 110.070312 C 296.144531 129.125 306.300781 153.257812 307.992188 179.464844 Z M 66.988281 195.300781 L 133.273438 195.300781 C 131.855469 245.53125 108.210938 264.476562 99.367188 269.882812 C 80.804688 250.0625 68.84375 224.238281 66.988281 195.300781 Z M 66.988281 195.300781 " fill-opacity="1" fill-rule="nonzero"/></g><g clip-path="url(#id4)"><path fill="#ff2b2b" d="M 45.519531 143.328125 L 329.761719 143.328125 L 329.761719 231.828125 L 45.519531 231.828125 L 45.519531 143.328125 " fill-opacity="1" fill-rule="nonzero"/></g><g fill="#ededed" fill-opacity="1"><g transform="translate(49.660035, 202.499987)"><g><path d="M 30.203125 -30.984375 L 30.203125 0 L 21.578125 0 L 21.578125 -12.4375 L 11.078125 -12.4375 L 11.078125 0 L 2.46875 0 L 2.46875 -30.984375 L 11.078125 -30.984375 L 11.078125 -19.34375 L 21.578125 -19.34375 L 21.578125 -30.984375 Z M 30.203125 -30.984375 "/></g></g></g><g fill="#ededed" fill-opacity="1"><g transform="translate(82.320166, 202.499987)"><g><path d="M 13.9375 0.3125 C 11.46875 0.3125 9.257812 -0.195312 7.3125 -1.21875 C 5.363281 -2.25 3.832031 -3.71875 2.71875 -5.625 C 1.613281 -7.53125 1.0625 -9.769531 1.0625 -12.34375 C 1.0625 -14.894531 1.625 -17.125 2.75 -19.03125 C 3.875 -20.9375 5.410156 -22.398438 7.359375 -23.421875 C 9.304688 -24.453125 11.515625 -24.96875 13.984375 -24.96875 C 16.441406 -24.96875 18.644531 -24.453125 20.59375 -23.421875 C 22.539062 -22.398438 24.078125 -20.9375 25.203125 -19.03125 C 26.335938 -17.125 26.90625 -14.894531 26.90625 -12.34375 C 26.90625 -9.800781 26.335938 -7.566406 25.203125 -5.640625 C 24.078125 -3.722656 22.53125 -2.25 20.5625 -1.21875 C 18.601562 -0.195312 16.394531 0.3125 13.9375 0.3125 Z M 13.9375 -7.171875 C 15.132812 -7.171875 16.132812 -7.613281 16.9375 -8.5 C 17.75 -9.394531 18.15625 -10.675781 18.15625 -12.34375 C 18.15625 -14.019531 17.75 -15.296875 16.9375 -16.171875 C 16.132812 -17.054688 15.148438 -17.5 13.984375 -17.5 C 12.804688 -17.5 11.820312 -17.054688 11.03125 -16.171875 C 10.238281 -15.296875 9.84375 -14.019531 9.84375 -12.34375 C 9.84375 -10.644531 10.222656 -9.359375 10.984375 -8.484375 C 11.742188 -7.609375 12.726562 -7.171875 13.9375 -7.171875 Z M 13.9375 -7.171875 "/></g></g></g><g fill="#ededed" fill-opacity="1"><g transform="translate(110.276891, 202.499987)"><g><path d="M 13.9375 0.3125 C 11.46875 0.3125 9.257812 -0.195312 7.3125 -1.21875 C 5.363281 -2.25 3.832031 -3.71875 2.71875 -5.625 C 1.613281 -7.53125 1.0625 -9.769531 1.0625 -12.34375 C 1.0625 -14.894531 1.625 -17.125 2.75 -19.03125 C 3.875 -20.9375 5.410156 -22.398438 7.359375 -23.421875 C 9.304688 -24.453125 11.515625 -24.96875 13.984375 -24.96875 C 16.441406 -24.96875 18.644531 -24.453125 20.59375 -23.421875 C 22.539062 -22.398438 24.078125 -20.9375 25.203125 -19.03125 C 26.335938 -17.125 26.90625 -14.894531 26.90625 -12.34375 C 26.90625 -9.800781 26.335938 -7.566406 25.203125 -5.640625 C 24.078125 -3.722656 22.53125 -2.25 20.5625 -1.21875 C 18.601562 -0.195312 16.394531 0.3125 13.9375 0.3125 Z M 13.9375 -7.171875 C 15.132812 -7.171875 16.132812 -7.613281 16.9375 -8.5 C 17.75 -9.394531 18.15625 -10.675781 18.15625 -12.34375 C 18.15625 -14.019531 17.75 -15.296875 16.9375 -16.171875 C 16.132812 -17.054688 15.148438 -17.5 13.984375 -17.5 C 12.804688 -17.5 11.820312 -17.054688 11.03125 -16.171875 C 10.238281 -15.296875 9.84375 -14.019531 9.84375 -12.34375 C 9.84375 -10.644531 10.222656 -9.359375 10.984375 -8.484375 C 11.742188 -7.609375 12.726562 -7.171875 13.9375 -7.171875 Z M 13.9375 -7.171875 "/></g></g></g><g fill="#ededed" fill-opacity="1"><g transform="translate(138.233615, 202.499987)"><g><path d="M 11.078125 -21.234375 C 11.753906 -22.367188 12.707031 -23.273438 13.9375 -23.953125 C 15.164062 -24.628906 16.613281 -24.96875 18.28125 -24.96875 C 20.25 -24.96875 22.03125 -24.453125 23.625 -23.421875 C 25.21875 -22.398438 26.476562 -20.9375 27.40625 -19.03125 C 28.332031 -17.125 28.796875 -14.894531 28.796875 -12.34375 C 28.796875 -9.800781 28.332031 -7.566406 27.40625 -5.640625 C 26.476562 -3.722656 25.21875 -2.25 23.625 -1.21875 C 22.03125 -0.195312 20.25 0.3125 18.28125 0.3125 C 16.613281 0.3125 15.171875 -0.0234375 13.953125 -0.703125 C 12.734375 -1.378906 11.773438 -2.285156 11.078125 -3.421875 L 11.078125 11.78125 L 2.46875 11.78125 L 2.46875 -24.65625 L 11.078125 -24.65625 Z M 20.046875 -12.34375 C 20.046875 -13.957031 19.613281 -15.210938 18.75 -16.109375 C 17.882812 -17.003906 16.820312 -17.453125 15.5625 -17.453125 C 14.300781 -17.453125 13.238281 -16.992188 12.375 -16.078125 C 11.507812 -15.171875 11.078125 -13.925781 11.078125 -12.34375 C 11.078125 -10.738281 11.507812 -9.476562 12.375 -8.5625 C 13.238281 -7.65625 14.300781 -7.203125 15.5625 -7.203125 C 16.820312 -7.203125 17.882812 -7.664062 18.75 -8.59375 C 19.613281 -9.519531 20.046875 -10.769531 20.046875 -12.34375 Z M 20.046875 -12.34375 "/></g></g></g><g fill="#ededed" fill-opacity="1"><g transform="translate(168.124448, 202.499987)"><g><path d="M 12.96875 0.3125 C 10.738281 0.3125 8.75 -0.0625 7 -0.8125 C 5.257812 -1.5625 3.882812 -2.585938 2.875 -3.890625 C 1.863281 -5.191406 1.300781 -6.664062 1.1875 -8.3125 L 9.53125 -8.3125 C 9.65625 -7.519531 10.023438 -6.898438 10.640625 -6.453125 C 11.253906 -6.015625 12.015625 -5.796875 12.921875 -5.796875 C 13.628906 -5.796875 14.1875 -5.941406 14.59375 -6.234375 C 15 -6.535156 15.203125 -6.921875 15.203125 -7.390625 C 15.203125 -8.003906 14.863281 -8.457031 14.1875 -8.75 C 13.519531 -9.039062 12.410156 -9.363281 10.859375 -9.71875 C 9.097656 -10.0625 7.628906 -10.453125 6.453125 -10.890625 C 5.285156 -11.335938 4.269531 -12.054688 3.40625 -13.046875 C 2.539062 -14.046875 2.109375 -15.394531 2.109375 -17.09375 C 2.109375 -18.5625 2.503906 -19.890625 3.296875 -21.078125 C 4.085938 -22.265625 5.25 -23.207031 6.78125 -23.90625 C 8.320312 -24.613281 10.175781 -24.96875 12.34375 -24.96875 C 15.570312 -24.96875 18.109375 -24.175781 19.953125 -22.59375 C 21.796875 -21.007812 22.863281 -18.925781 23.15625 -16.34375 L 15.390625 -16.34375 C 15.234375 -17.132812 14.882812 -17.742188 14.34375 -18.171875 C 13.800781 -18.597656 13.078125 -18.8125 12.171875 -18.8125 C 11.472656 -18.8125 10.9375 -18.675781 10.5625 -18.40625 C 10.195312 -18.144531 10.015625 -17.78125 10.015625 -17.3125 C 10.015625 -16.726562 10.351562 -16.28125 11.03125 -15.96875 C 11.707031 -15.664062 12.789062 -15.351562 14.28125 -15.03125 C 16.070312 -14.644531 17.5625 -14.21875 18.75 -13.75 C 19.9375 -13.28125 20.972656 -12.523438 21.859375 -11.484375 C 22.753906 -10.453125 23.203125 -9.039062 23.203125 -7.25 C 23.203125 -5.8125 22.785156 -4.519531 21.953125 -3.375 C 21.117188 -2.238281 19.929688 -1.335938 18.390625 -0.671875 C 16.859375 -0.015625 15.050781 0.3125 12.96875 0.3125 Z M 12.96875 0.3125 "/></g></g></g><g fill="#ededed" fill-opacity="1"><g transform="translate(193.09209, 202.499987)"><g/></g></g><g fill="#ededed" fill-opacity="1"><g transform="translate(201.487899, 202.499987)"><g><path d="M 14.71875 -30.984375 C 17.976562 -30.984375 20.828125 -30.332031 23.265625 -29.03125 C 25.710938 -27.726562 27.597656 -25.90625 28.921875 -23.5625 C 30.242188 -21.21875 30.90625 -18.535156 30.90625 -15.515625 C 30.90625 -12.523438 30.238281 -9.859375 28.90625 -7.515625 C 27.570312 -5.171875 25.679688 -3.332031 23.234375 -2 C 20.785156 -0.664062 17.945312 0 14.71875 0 L 2.46875 0 L 2.46875 -30.984375 Z M 14.0625 -7.609375 C 16.582031 -7.609375 18.5625 -8.296875 20 -9.671875 C 21.4375 -11.046875 22.15625 -12.992188 22.15625 -15.515625 C 22.15625 -18.066406 21.4375 -20.035156 20 -21.421875 C 18.5625 -22.816406 16.582031 -23.515625 14.0625 -23.515625 L 11.078125 -23.515625 L 11.078125 -7.609375 Z M 14.0625 -7.609375 "/></g></g></g><g fill="#ededed" fill-opacity="1"><g transform="translate(233.796376, 202.499987)"><g><path d="M 1.0625 -12.34375 C 1.0625 -14.894531 1.519531 -17.125 2.4375 -19.03125 C 3.363281 -20.9375 4.625 -22.398438 6.21875 -23.421875 C 7.8125 -24.453125 9.59375 -24.96875 11.5625 -24.96875 C 13.257812 -24.96875 14.722656 -24.628906 15.953125 -23.953125 C 17.179688 -23.273438 18.132812 -22.367188 18.8125 -21.234375 L 18.8125 -24.65625 L 27.421875 -24.65625 L 27.421875 0 L 18.8125 0 L 18.8125 -3.421875 C 18.132812 -2.285156 17.171875 -1.378906 15.921875 -0.703125 C 14.679688 -0.0234375 13.226562 0.3125 11.5625 0.3125 C 9.59375 0.3125 7.8125 -0.195312 6.21875 -1.21875 C 4.625 -2.25 3.363281 -3.722656 2.4375 -5.640625 C 1.519531 -7.566406 1.0625 -9.800781 1.0625 -12.34375 Z M 18.8125 -12.34375 C 18.8125 -13.925781 18.378906 -15.171875 17.515625 -16.078125 C 16.648438 -16.992188 15.585938 -17.453125 14.328125 -17.453125 C 13.035156 -17.453125 11.960938 -17.003906 11.109375 -16.109375 C 10.265625 -15.210938 9.84375 -13.957031 9.84375 -12.34375 C 9.84375 -10.769531 10.265625 -9.519531 11.109375 -8.59375 C 11.960938 -7.664062 13.035156 -7.203125 14.328125 -7.203125 C 15.585938 -7.203125 16.648438 -7.65625 17.515625 -8.5625 C 18.378906 -9.476562 18.8125 -10.738281 18.8125 -12.34375 Z M 18.8125 -12.34375 "/></g></g></g><g fill="#ededed" fill-opacity="1"><g transform="translate(263.687197, 202.499987)"><g><path d="M 17.015625 -7.34375 L 17.015625 0 L 13.28125 0 C 6.976562 0 3.828125 -3.117188 3.828125 -9.359375 L 3.828125 -17.5 L 0.796875 -17.5 L 0.796875 -24.65625 L 3.828125 -24.65625 L 3.828125 -30.640625 L 12.484375 -30.640625 L 12.484375 -24.65625 L 16.96875 -24.65625 L 16.96875 -17.5 L 12.484375 -17.5 L 12.484375 -9.234375 C 12.484375 -8.554688 12.632812 -8.070312 12.9375 -7.78125 C 13.25 -7.488281 13.769531 -7.34375 14.5 -7.34375 Z M 17.015625 -7.34375 "/></g></g></g><g fill="#ededed" fill-opacity="1"><g transform="translate(282.193139, 202.499987)"><g><path d="M 1.0625 -12.34375 C 1.0625 -14.894531 1.519531 -17.125 2.4375 -19.03125 C 3.363281 -20.9375 4.625 -22.398438 6.21875 -23.421875 C 7.8125 -24.453125 9.59375 -24.96875 11.5625 -24.96875 C 13.257812 -24.96875 14.722656 -24.628906 15.953125 -23.953125 C 17.179688 -23.273438 18.132812 -22.367188 18.8125 -21.234375 L 18.8125 -24.65625 L 27.421875 -24.65625 L 27.421875 0 L 18.8125 0 L 18.8125 -3.421875 C 18.132812 -2.285156 17.171875 -1.378906 15.921875 -0.703125 C 14.679688 -0.0234375 13.226562 0.3125 11.5625 0.3125 C 9.59375 0.3125 7.8125 -0.195312 6.21875 -1.21875 C 4.625 -2.25 3.363281 -3.722656 2.4375 -5.640625 C 1.519531 -7.566406 1.0625 -9.800781 1.0625 -12.34375 Z M 18.8125 -12.34375 C 18.8125 -13.925781 18.378906 -15.171875 17.515625 -16.078125 C 16.648438 -16.992188 15.585938 -17.453125 14.328125 -17.453125 C 13.035156 -17.453125 11.960938 -17.003906 11.109375 -16.109375 C 10.265625 -15.210938 9.84375 -13.957031 9.84375 -12.34375 C 9.84375 -10.769531 10.265625 -9.519531 11.109375 -8.59375 C 11.960938 -7.664062 13.035156 -7.203125 14.328125 -7.203125 C 15.585938 -7.203125 16.648438 -7.65625 17.515625 -8.5625 C 18.378906 -9.476562 18.8125 -10.738281 18.8125 -12.34375 Z M 18.8125 -12.34375 "/></g></g></g></svg>